<svg width="31" height="31" viewBox="0 0 31 31" fill="none" xmlns="http://www.w3.org/2000/svg">
<path d="M10.8294 23.4986C9.65754 24.0892 5.62629 21.9798 4.52004 20.958C4.22004 19.3736 6.56379 9.7361 8.16691 8.13297C9.77004 6.52985 13.1263 6.52985 13.1263 6.52985C13.3749 6.52985 13.6134 6.43107 13.7892 6.25526C13.965 6.07944 14.0638 5.84099 14.0638 5.59235C14.0638 5.34371 13.965 5.10525 13.7892 4.92943C13.6134 4.75362 13.3749 4.65485 13.1263 4.65485C12.9575 4.65485 8.96379 4.65485 6.83566 6.80172C5.09191 8.55485 1.46379 20.5642 3.08566 22.1955C3.87316 22.9736 7.67941 25.458 10.3513 25.458C10.808 25.4705 11.2611 25.3741 11.6732 25.1767C11.894 25.0643 12.0613 24.8691 12.1386 24.6337C12.2159 24.3983 12.1969 24.1419 12.0857 23.9205C11.9749 23.698 11.7804 23.5286 11.5449 23.4495C11.3093 23.3704 11.052 23.3881 10.8294 23.4986Z" fill="white"/>
<path d="M25.0419 6.80172C22.9138 4.68297 18.92 4.65485 18.7513 4.65485C18.5026 4.65485 18.2642 4.75362 18.0884 4.92943C17.9126 5.10525 17.8138 5.34371 17.8138 5.59235C17.8138 5.84099 17.9126 6.07944 18.0884 6.25526C18.2642 6.43107 18.5026 6.52985 18.7513 6.52985C19.6888 6.52985 22.3982 6.82047 23.7107 8.13297C25.3138 9.7361 27.6575 19.383 27.3575 20.958C26.2513 21.9798 22.22 24.0892 21.0482 23.4986C20.8256 23.3881 20.5683 23.3704 20.3327 23.4495C20.0972 23.5286 19.9026 23.698 19.7919 23.9205C19.6807 24.1419 19.6617 24.3983 19.739 24.6337C19.8163 24.8691 19.9836 25.0643 20.2044 25.1767C20.6165 25.3741 21.0696 25.4705 21.5263 25.458C24.1982 25.458 28.0044 22.9736 28.7919 22.1955C30.4138 20.5642 26.7857 8.55485 25.0419 6.80172Z" fill="white"/>
<path d="M12.1888 18.483C13.2243 18.483 14.0638 17.5386 14.0638 16.3736C14.0638 15.2086 13.2243 14.2642 12.1888 14.2642C11.1532 14.2642 10.3138 15.2086 10.3138 16.3736C10.3138 17.5386 11.1532 18.483 12.1888 18.483Z" fill="white"/>
<path d="M19.6888 18.483C20.7243 18.483 21.5638 17.5386 21.5638 16.3736C21.5638 15.2086 20.7243 14.2642 19.6888 14.2642C18.6532 14.2642 17.8138 15.2086 17.8138 16.3736C17.8138 17.5386 18.6532 18.483 19.6888 18.483Z" fill="white"/>
<path d="M23.4388 11.2174C23.5981 11.2177 23.7549 11.1774 23.8943 11.1003C24.0337 11.0232 24.1512 10.9118 24.2357 10.7767C24.3011 10.6722 24.3453 10.5557 24.3656 10.434C24.386 10.3123 24.3821 10.1878 24.3543 10.0676C24.3264 9.94739 24.2751 9.83388 24.2032 9.73356C24.1314 9.63325 24.0405 9.54809 23.9357 9.48299C16.0325 4.54236 8.27004 9.27674 7.94192 9.48299C7.83727 9.54824 7.7465 9.63346 7.67479 9.73379C7.60308 9.83412 7.55183 9.9476 7.52397 10.0677C7.46771 10.3104 7.51014 10.5654 7.64192 10.7767C7.77369 10.9881 7.98403 11.1384 8.22666 11.1947C8.46928 11.2509 8.72432 11.2085 8.93567 11.0767C9.21692 10.8986 16.0419 6.76424 22.9419 11.0767C23.0911 11.1692 23.2633 11.2179 23.4388 11.2174Z" fill="white"/>
<path d="M22.5857 21.9236C22.6338 22.0233 22.6971 22.115 22.7732 22.1955C22.8603 22.2833 22.964 22.3531 23.0782 22.4007C23.1925 22.4483 23.315 22.4728 23.4388 22.4728C23.5625 22.4728 23.6851 22.4483 23.7993 22.4007C23.9136 22.3531 24.0173 22.2833 24.1044 22.1955C24.8134 21.5313 25.2453 20.6239 25.3138 19.6548C25.3141 19.4791 25.2651 19.3069 25.1723 19.1577C25.0794 19.0085 24.9466 18.8884 24.7888 18.8111C24.6314 18.7347 24.4558 18.7039 24.2819 18.7222C24.1079 18.7404 23.9425 18.8069 23.8044 18.9142C21.5854 20.7191 18.7986 21.679 15.9388 21.6236C13.0855 21.6639 10.3086 20.7018 8.09191 18.9048C7.95097 18.7954 7.78171 18.7284 7.60401 18.7118C7.42631 18.6952 7.24757 18.7296 7.08878 18.8111C6.931 18.8884 6.79812 19.0085 6.70529 19.1577C6.61247 19.3069 6.56343 19.4791 6.56378 19.6548C6.63222 20.6239 7.06417 21.5313 7.77316 22.1955C7.86031 22.2833 7.964 22.3531 8.07824 22.4007C8.19249 22.4483 8.31502 22.4728 8.43878 22.4728C8.56254 22.4728 8.68508 22.4483 8.79932 22.4007C8.91357 22.3531 9.01726 22.2833 9.10441 22.1955C9.1805 22.115 9.24374 22.0233 9.29191 21.9236C11.2401 22.96 13.4134 23.5009 15.62 23.4986H16.2575C18.4642 23.5009 20.6375 22.96 22.5857 21.9236Z" fill="white"/>
</svg>
