<svg width="24" height="24" viewBox="0 0 24 24" fill="none" xmlns="http://www.w3.org/2000/svg">
<g clip-path="url(#clip0_1_292)">
<path d="M20 2H4C2.93913 2 1.92172 2.42143 1.17157 3.17157C0.421427 3.92172 0 4.93913 0 6L0 18C0 19.0609 0.421427 20.0783 1.17157 20.8284C1.92172 21.5786 2.93913 22 4 22H20C21.0609 22 22.0783 21.5786 22.8284 20.8284C23.5786 20.0783 24 19.0609 24 18V6C24 4.93913 23.5786 3.92172 22.8284 3.17157C22.0783 2.42143 21.0609 2 20 2ZM22 18C22 18.5304 21.7893 19.0391 21.4142 19.4142C21.0391 19.7893 20.5304 20 20 20H4C3.46957 20 2.96086 19.7893 2.58579 19.4142C2.21071 19.0391 2 18.5304 2 18V6C2 5.46957 2.21071 4.96086 2.58579 4.58579C2.96086 4.21071 3.46957 4 4 4H20C20.5304 4 21.0391 4.21071 21.4142 4.58579C21.7893 4.96086 22 5.46957 22 6V18Z" fill="white"/>
<path d="M19.74 7.01683C19.6516 6.91962 19.545 6.84077 19.4261 6.78479C19.3073 6.72881 19.1786 6.6968 19.0474 6.69058C18.9162 6.68435 18.785 6.70405 18.6614 6.74853C18.5378 6.79301 18.4242 6.86141 18.327 6.94983L13.35 11.4788C12.9808 11.8151 12.4994 12.0014 12 12.0014C11.5006 12.0014 11.0192 11.8151 10.65 11.4788L5.673 6.94983C5.47674 6.77134 5.21761 6.67812 4.95262 6.69068C4.68763 6.70325 4.43849 6.82057 4.26 7.01683C4.08151 7.21309 3.98829 7.47221 4.00086 7.7372C4.00708 7.86841 4.03908 7.99711 4.09504 8.11595C4.151 8.23479 4.22982 8.34145 4.327 8.42983L8.284 12.0298L4.328 15.6198C4.22647 15.7069 4.14344 15.8134 4.0838 15.9331C4.02416 16.0528 3.98914 16.1832 3.9808 16.3167C3.97246 16.4501 3.99097 16.5839 4.03524 16.7101C4.07952 16.8363 4.14865 16.9523 4.23855 17.0513C4.32845 17.1503 4.43729 17.2303 4.55864 17.2865C4.67999 17.3427 4.81137 17.3739 4.94502 17.3785C5.07867 17.383 5.21187 17.3607 5.33674 17.3128C5.46161 17.2649 5.57561 17.1925 5.672 17.0998L9.815 13.3398C10.462 13.7715 11.2223 14.0018 12 14.0018C12.7777 14.0018 13.538 13.7715 14.185 13.3398L18.328 17.0998C18.4244 17.1925 18.5384 17.2649 18.6633 17.3128C18.7881 17.3607 18.9213 17.383 19.055 17.3785C19.1886 17.3739 19.32 17.3427 19.4414 17.2865C19.5627 17.2303 19.6715 17.1503 19.7614 17.0513C19.8513 16.9523 19.9205 16.8363 19.9648 16.7101C20.009 16.5839 20.0275 16.4501 20.0192 16.3167C20.0109 16.1832 19.9758 16.0528 19.9162 15.9331C19.8566 15.8134 19.7735 15.7069 19.672 15.6198L15.717 12.0288L19.673 8.42883C19.869 8.25041 19.9862 8.00146 19.9988 7.73669C20.0113 7.47193 19.9182 7.21301 19.74 7.01683Z" fill="white"/>
</g>
<defs>
<clipPath id="clip0_1_292">
<rect width="24" height="24" fill="white"/>
</clipPath>
</defs>
</svg>
