<svg width="26" height="27" viewBox="0 0 26 27" fill="none" xmlns="http://www.w3.org/2000/svg">
<path d="M23.2747 3.54672C23.0325 3.33511 22.7395 3.19609 22.427 3.14456C22.1146 3.09303 21.7946 3.13094 21.5013 3.25422L3.60284 10.7048C3.34193 10.8176 3.11898 11.0081 2.96214 11.2525C2.80529 11.4969 2.72159 11.7841 2.72159 12.078C2.72159 12.3718 2.80529 12.659 2.96214 12.9034C3.11898 13.1478 3.34193 13.3384 3.60284 13.4511L4.75909 13.9467C4.94973 14.0306 5.16459 14.0324 5.35647 13.9516C5.54836 13.8709 5.7016 13.7142 5.78253 13.5161C5.82223 13.4174 5.84281 13.3116 5.84309 13.2046C5.84336 13.0976 5.82332 12.9917 5.78413 12.8928C5.74493 12.7939 5.68735 12.704 5.61468 12.6283C5.54201 12.5527 5.45568 12.4926 5.36065 12.4517L4.50128 12.0861L22.0872 4.7736C22.1143 4.75636 22.1453 4.74723 22.1771 4.74723C22.2088 4.74723 22.2399 4.75636 22.2669 4.7736C22.2924 4.79611 22.3116 4.82532 22.3226 4.85818C22.3336 4.89104 22.336 4.92636 22.3294 4.96047L19.1185 20.5442C19.1079 20.5997 19.0837 20.6514 19.048 20.6942C19.0124 20.7369 18.9667 20.7692 18.9153 20.788C18.865 20.8088 18.8102 20.8152 18.7566 20.8066C18.7031 20.7981 18.6527 20.7748 18.6107 20.7392L12.3607 15.6692L18.4778 9.24235C18.6085 9.10135 18.6858 8.91601 18.6956 8.72044C18.7053 8.52487 18.6467 8.33222 18.5307 8.17796C18.4147 8.0237 18.2491 7.9182 18.0642 7.88088C17.8794 7.84356 17.6878 7.87693 17.5247 7.97485L8.55597 13.4998C8.45635 13.5467 8.36729 13.6147 8.29455 13.6996C8.22181 13.7844 8.167 13.8842 8.13367 13.9925C8.10034 14.1008 8.08922 14.2151 8.10105 14.3281C8.11287 14.4412 8.14737 14.5503 8.20232 14.6486C8.25726 14.7469 8.33143 14.8321 8.42002 14.8987C8.50861 14.9653 8.60965 15.0118 8.71662 15.0353C8.82358 15.0587 8.93409 15.0586 9.04099 15.0348C9.14789 15.011 9.24881 14.9642 9.33722 14.8973L13.1107 12.5817L11.2747 14.5236C11.1068 14.6877 10.9758 14.8884 10.8912 15.1114C10.8066 15.3343 10.7705 15.574 10.7854 15.8132C10.8003 16.0523 10.866 16.2851 10.9776 16.4948C11.0892 16.7045 11.244 16.8859 11.431 17.0261L17.681 22.023C18.0099 22.287 18.4139 22.4299 18.8294 22.4292C19.0507 22.4276 19.27 22.3863 19.4778 22.3073C19.7763 22.1959 20.0422 22.0067 20.2501 21.7577C20.4581 21.5087 20.601 21.2084 20.6653 20.8855L23.8528 5.31797C23.9205 4.99597 23.9024 4.66087 23.8006 4.34876C23.6987 4.03665 23.5169 3.75935 23.2747 3.54672Z" fill="white"/>
</svg>
