<svg width="28" height="29" viewBox="0 0 28 29" fill="none" xmlns="http://www.w3.org/2000/svg">
<path d="M25.2135 7.15737C25.1592 7.08765 25.0935 7.0284 25.0194 6.98237C25.2077 6.60598 25.3386 6.2016 25.4075 5.78362C25.4341 5.61614 25.4132 5.44425 25.3473 5.28889C25.2814 5.13353 25.1733 5.00141 25.0363 4.90862C24.8985 4.81453 24.7372 4.76439 24.5722 4.76439C24.4073 4.76439 24.2459 4.81453 24.1082 4.90862C23.5229 5.30297 22.8697 5.57631 22.1844 5.71362C21.397 4.94713 20.4005 4.45167 19.3311 4.29505C18.2618 4.13842 17.1719 4.32827 16.2107 4.83862C15.2072 5.38335 14.4062 6.25766 13.9329 7.32475C13.4597 8.39184 13.3408 9.59153 13.595 10.7361C13.6398 10.9682 13.7716 11.1723 13.9615 11.3036C14.1514 11.4349 14.3837 11.4825 14.6075 11.4361C14.8313 11.3897 15.0281 11.253 15.1547 11.0561C15.2813 10.8592 15.3273 10.6182 15.2825 10.3861C15.1078 9.62622 15.1782 8.82786 15.483 8.11346C15.7879 7.39906 16.3102 6.80807 16.97 6.43112C17.6811 6.05677 18.4925 5.93956 19.2751 6.09809C20.0578 6.25662 20.767 6.6818 21.29 7.30612C21.3857 7.40584 21.5031 7.48017 21.6324 7.52282C21.7616 7.56547 21.8989 7.57518 22.0325 7.55112H22.2435C22.1477 7.65389 22.0778 7.77941 22.0396 7.9167C22.0014 8.05399 21.9963 8.19889 22.0246 8.33872C22.0529 8.47856 22.1138 8.60908 22.2019 8.71888C22.2901 8.82868 22.4029 8.91443 22.5303 8.96862C22.4221 9.06074 22.3376 9.17936 22.2846 9.31379C22.2315 9.44821 22.2116 9.59421 22.2266 9.73862C22.3666 11.6028 22.0636 13.4742 21.3443 15.1888C20.625 16.9034 19.5113 18.409 18.1007 19.5736C16.6538 20.8611 14.9031 21.7267 13.0276 22.0819C11.1522 22.437 9.21944 22.269 7.42721 21.5949C8.85226 21.3472 10.1805 20.6859 11.2578 19.6874C11.3666 19.5586 11.4365 19.3997 11.459 19.2302C11.4815 19.0606 11.4555 18.888 11.3844 18.7336C11.3142 18.5806 11.2027 18.4521 11.0634 18.3635C10.9241 18.275 10.763 18.2303 10.5997 18.2349C10.1186 18.231 9.64381 18.1204 9.20724 17.9107C8.77067 17.7009 8.3824 17.3967 8.06846 17.0186C8.36264 16.9599 8.64692 16.8567 8.91221 16.7124C9.07085 16.6315 9.20099 16.501 9.28426 16.3393C9.36753 16.1776 9.39971 15.9928 9.37628 15.8111C9.35359 15.6357 9.28017 15.4716 9.16568 15.3404C9.0512 15.2092 8.90104 15.117 8.73503 15.0761C8.18139 14.9387 7.66542 14.6718 7.22667 14.2956C6.78791 13.9195 6.43801 13.4442 6.20378 12.9061C6.40628 12.9061 6.60878 12.9499 6.82815 12.9586C7.00603 12.9723 7.18351 12.9271 7.33511 12.8297C7.4867 12.7322 7.60461 12.5874 7.6719 12.4161C7.73218 12.2449 7.73937 12.0584 7.69248 11.8827C7.64559 11.707 7.54695 11.5509 7.41034 11.4361C6.00128 10.1061 5.65534 8.67987 5.85784 7.67362C7.4493 9.4206 9.50478 10.6387 11.7641 11.1736C11.8749 11.1954 11.9888 11.1944 12.0992 11.1706C12.2096 11.1468 12.3144 11.1007 12.4077 11.0349C12.5009 10.9691 12.5807 10.8849 12.6426 10.7871C12.7044 10.6893 12.7471 10.5798 12.7682 10.4649C12.7892 10.35 12.7882 10.2319 12.7653 10.1174C12.7423 10.0029 12.6978 9.89414 12.6344 9.79746C12.5709 9.70077 12.4897 9.61799 12.3954 9.55384C12.3011 9.4897 12.1955 9.44545 12.0847 9.42362C9.79757 8.86787 7.76521 7.51119 6.33034 5.58237C6.25446 5.48263 6.15855 5.40122 6.04927 5.3438C5.93999 5.28638 5.81996 5.25433 5.69753 5.24987C5.57414 5.24513 5.45125 5.26853 5.33753 5.31842C5.22382 5.36831 5.12204 5.44348 5.0394 5.53862C4.49294 6.28549 4.17578 7.18557 4.12913 8.12185C4.08248 9.05814 4.30851 9.98732 4.77784 10.7886H4.7019C4.57718 10.8589 4.47158 10.9608 4.39489 11.0846C4.31819 11.2085 4.27288 11.3505 4.26315 11.4974C4.24939 12.2338 4.38929 12.9645 4.67328 13.6396C4.95726 14.3147 5.37861 14.9182 5.90846 15.4086C5.81007 15.5271 5.74409 15.6707 5.71738 15.8246C5.69067 15.9785 5.70421 16.137 5.75659 16.2836C6.24522 17.6347 7.20185 18.7484 8.43971 19.4074C7.12074 19.9221 5.72305 20.1859 4.31378 20.1861C4.12964 20.1881 3.95117 20.2524 3.80561 20.3694C3.66004 20.4864 3.55537 20.6495 3.50757 20.8339C3.45976 21.0183 3.47145 21.2139 3.54084 21.3908C3.61023 21.5677 3.73353 21.7162 3.8919 21.8136C6.05223 23.1905 8.52851 23.9428 11.0638 23.9924C14.0315 23.9572 16.895 22.8528 19.1638 20.8686C20.7303 19.575 21.9812 17.9172 22.8153 16.0292C23.6493 14.1413 24.0431 12.0762 23.9647 10.0011C24.604 9.50546 25.0811 8.81826 25.3316 8.03237C25.3885 7.88877 25.4076 7.73204 25.3868 7.57827C25.3661 7.4245 25.3062 7.27923 25.2135 7.15737Z" fill="white"/>
</svg>
