<svg width="25" height="26" viewBox="0 0 25 26" fill="none" xmlns="http://www.w3.org/2000/svg">
<path d="M23.4792 6.95516C23.3554 6.44102 23.1034 5.96995 22.7486 5.58952C22.3938 5.20909 21.9487 4.93278 21.4583 4.7885C19.6667 4.3335 12.5 4.3335 12.5 4.3335C12.5 4.3335 5.33334 4.3335 3.54167 4.83183C3.0513 4.97611 2.60623 5.25242 2.25141 5.63285C1.89658 6.01328 1.64458 6.48436 1.52084 6.9985C1.19294 8.88951 1.03254 10.8078 1.04167 12.7293C1.02998 14.6653 1.19039 16.5982 1.52084 18.5035C1.65725 19.0017 1.91491 19.4548 2.26891 19.8192C2.6229 20.1835 3.06128 20.4468 3.54167 20.5835C5.33334 21.0818 12.5 21.0818 12.5 21.0818C12.5 21.0818 19.6667 21.0818 21.4583 20.5835C21.9487 20.4392 22.3938 20.1629 22.7486 19.7825C23.1034 19.402 23.3554 18.931 23.4792 18.4168C23.8045 16.54 23.9649 14.6364 23.9583 12.7293C23.97 10.7934 23.8096 8.86042 23.4792 6.95516Z" stroke="white" stroke-width="2" stroke-linecap="round" stroke-linejoin="round"/>
<path d="M10.1562 16.2715L16.1458 12.729L10.1562 9.18652V16.2715Z" stroke="white" stroke-width="2" stroke-linecap="round" stroke-linejoin="round"/>
</svg>
