<svg width="8" height="5" viewBox="0 0 8 5" fill="none" xmlns="http://www.w3.org/2000/svg">
<path d="M1.33534 1.00168C1.37918 1.00143 1.42264 1.00983 1.46323 1.02641C1.50382 1.04299 1.54074 1.06741 1.57187 1.09829L4.00042 3.53017L6.42898 1.09829C6.49171 1.03556 6.57679 1.00032 6.6655 1.00032C6.75422 1.00032 6.8393 1.03556 6.90203 1.09829C6.96476 1.16102 7 1.2461 7 1.33481C7 1.42353 6.96476 1.50861 6.90203 1.57134L4.23695 4.23642C4.20598 4.26764 4.16913 4.29243 4.12854 4.30934C4.08794 4.32625 4.0444 4.33496 4.00042 4.33496C3.95644 4.33496 3.9129 4.32625 3.8723 4.30934C3.83171 4.29243 3.79486 4.26764 3.7639 4.23642L1.09881 1.57134C1.06759 1.54037 1.04281 1.50353 1.02589 1.46293C1.00898 1.42233 1.00027 1.37879 1.00027 1.33481C1.00027 1.29084 1.00898 1.24729 1.02589 1.2067C1.04281 1.1661 1.06759 1.12926 1.09881 1.09829C1.12994 1.06741 1.16686 1.04299 1.20745 1.02641C1.24803 1.00983 1.2915 1.00143 1.33534 1.00168Z" fill="#555555" stroke="#555555" stroke-width="0.5"/>
</svg>
