<svg width="25" height="14" viewBox="0 0 25 14" fill="none" xmlns="http://www.w3.org/2000/svg">
<path d="M2.30002 0.642542C2.47571 0.641526 2.64987 0.675201 2.81252 0.741636C2.97517 0.80807 3.1231 0.905959 3.24785 1.02969L12.9798 10.775L22.7117 1.02969C22.9631 0.778308 23.3041 0.637083 23.6596 0.637083C24.0151 0.637083 24.356 0.778308 24.6074 1.02969C24.8588 1.28107 25 1.62201 25 1.97752C25 2.33302 24.8588 2.67396 24.6074 2.92535L13.9276 13.6051C13.8035 13.7302 13.6559 13.8296 13.4932 13.8973C13.3305 13.9651 13.156 14 12.9798 14C12.8036 14 12.6291 13.9651 12.4664 13.8973C12.3037 13.8296 12.1561 13.7302 12.032 13.6051L1.35219 2.92534C1.22706 2.80124 1.12775 2.65359 1.05997 2.49091C0.992198 2.32823 0.957305 2.15375 0.957305 1.97751C0.957305 1.80128 0.992198 1.62679 1.05997 1.46411C1.12775 1.30144 1.22706 1.15379 1.35219 1.02969C1.47693 0.905958 1.62486 0.808069 1.78751 0.741636C1.95016 0.675201 2.12433 0.641526 2.30002 0.642542Z" fill="#00EEFF"/>
</svg>
