<svg width="297" height="28" viewBox="0 0 297 28" fill="none" xmlns="http://www.w3.org/2000/svg">
<path d="M24.5492 20V8C24.5492 5.8 22.7492 4 20.5492 4H8.54922C6.34922 4 4.54922 5.8 4.54922 8V20C4.54922 22.2 6.34922 24 8.54922 24H20.5492C22.7492 24 24.5492 22.2 24.5492 20ZM28.5492 8V20C28.5492 24.4 24.9492 28 20.5492 28H8.54922C4.10922 28 0.549219 24.44 0.549219 20V8C0.549219 3.6 4.14922 -1.90735e-06 8.54922 -1.90735e-06H20.5492C24.7892 -1.90735e-06 28.5492 3.64 28.5492 8ZM70.1602 20V8C70.1602 5.8 68.3602 4 66.1602 4H50.1602V24H66.1602C68.3602 24 70.1602 22.2 70.1602 20ZM74.1602 8V20C74.1602 24.24 70.6402 28 66.1602 28H46.1602V-1.90735e-06H66.1602C70.4402 -1.90735e-06 74.0402 3.56 74.1602 8ZM117.78 6L105.78 19.2V28H101.78V19.2L89.7805 6V-1.90735e-06H93.7805V4.36L103.78 15.36L113.78 4.36V-1.90735e-06H117.78V6ZM161.409 20C161.409 24.24 157.889 28 153.409 28H141.409C137.049 28 133.529 24.52 133.409 20H137.409C137.409 22.2 139.209 24 141.409 24H153.409C155.609 24 157.409 22.2 157.409 20C157.409 17.8 155.609 16 153.409 16H141.409C137.129 16 133.409 12.52 133.409 8C133.409 3.76 136.929 -1.90735e-06 141.409 -1.90735e-06H153.409C157.689 -1.90735e-06 161.289 3.56 161.409 8H157.409C157.409 5.8 155.609 4 153.409 4H141.409C139.209 4 137.409 5.8 137.409 8C137.409 10.2 139.209 12 141.409 12H153.409C157.609 12 161.409 15.56 161.409 20ZM206.62 20C206.62 24.24 203.1 28 198.62 28H186.62C182.26 28 178.74 24.52 178.62 20H182.62C182.62 22.2 184.42 24 186.62 24H198.62C200.82 24 202.62 22.2 202.62 20C202.62 17.8 200.82 16 198.62 16H186.62C182.34 16 178.62 12.52 178.62 8C178.62 3.76 182.14 -1.90735e-06 186.62 -1.90735e-06H198.62C202.9 -1.90735e-06 206.5 3.56 206.62 8H202.62C202.62 5.8 200.82 4 198.62 4H186.62C184.42 4 182.62 5.8 182.62 8C182.62 10.2 184.42 12 186.62 12H198.62C202.82 12 206.62 15.56 206.62 20ZM228.23 4V12H248.23V16H228.23V24H252.23V28H224.23V-1.90735e-06H252.23V4H228.23ZM296.241 6L284.241 19.2V28H280.241V19.2L268.241 6V-1.90735e-06H272.241V4.36L282.241 15.36L292.241 4.36V-1.90735e-06H296.241V6Z" fill="white"/>
</svg>
