<svg width="23" height="23" viewBox="0 0 23 23" fill="none" xmlns="http://www.w3.org/2000/svg">
<path d="M11.5 2.57764C6.58051 2.57764 2.57816 6.58 2.57816 11.4995C2.57816 13.5167 3.23509 15.4199 4.47745 17.0029C6.18197 19.1757 8.7418 20.422 11.5004 20.422C14.2589 20.422 16.8187 19.1757 18.5236 17.0026C19.7656 15.4192 20.4222 13.5159 20.4222 11.4995C20.4218 6.58 16.4195 2.57764 11.5 2.57764ZM14.923 10.9762C14.8839 10.1101 14.7534 9.29436 14.5626 8.53823C15.6644 8.27086 16.6114 7.88776 17.3866 7.49173C18.0744 8.4987 18.5046 9.6911 18.5987 10.9762H14.923ZM11.4389 18.6234C11.4137 18.623 11.389 18.6216 11.3642 18.6212C10.9031 18.0254 10.1761 16.9296 9.64562 15.4098C10.2246 15.3186 10.8423 15.2621 11.5004 15.2621C12.0804 15.2621 12.6299 15.3056 13.1506 15.3779C12.6101 16.8596 11.8888 17.997 11.4389 18.6234ZM11.5 14.184C10.7273 14.184 10.0082 14.2573 9.33584 14.3712C9.16047 13.6669 9.03648 12.8935 8.99803 12.054H13.8474C13.804 12.8633 13.6685 13.6281 13.4791 14.3357C12.8592 14.2408 12.1993 14.184 11.5 14.184ZM4.40162 10.9762C4.49578 9.6911 4.92595 8.4987 5.6138 7.49173C6.34476 7.86512 7.23242 8.22773 8.2588 8.49259C8.07947 9.24943 7.95908 10.0789 7.92386 10.9766H4.40162V10.9762ZM8.99767 10.9762C9.03325 10.1615 9.14969 9.40828 9.31644 8.719C9.99566 8.83435 10.7241 8.90264 11.5 8.90264C12.208 8.90264 12.875 8.84442 13.5024 8.74703C13.6821 9.4399 13.809 10.1863 13.8489 10.9759L8.99767 10.9762ZM11.4414 4.37739C11.9003 5.01456 12.6396 6.18181 13.1822 7.70448C12.6518 7.77959 12.0915 7.82451 11.4996 7.82451C10.8337 7.82451 10.207 7.76917 9.61903 7.67573C10.1516 6.11676 10.8955 4.99012 11.3642 4.38134C11.3904 4.38098 11.4155 4.37775 11.4414 4.37739ZM16.6901 6.63354C16.0087 6.96525 15.1951 7.27898 14.2604 7.50143C13.8406 6.26986 13.2969 5.25031 12.8282 4.50317C14.3387 4.78959 15.6781 5.5547 16.6901 6.63354ZM9.91767 4.55779C9.45623 5.2769 8.94341 6.24973 8.54881 7.45436C7.69278 7.2355 6.94384 6.94189 6.30991 6.63354C7.26476 5.61579 8.51108 4.87836 9.91767 4.55779ZM4.39767 12.0544H7.92458C7.96303 12.9758 8.09169 13.8243 8.28036 14.5962C7.23566 14.8643 6.35447 15.224 5.66087 15.5748C4.92703 14.5279 4.49434 13.3276 4.39767 12.0544ZM6.35806 16.4297C6.96361 16.1394 7.71291 15.8519 8.57612 15.6327C8.9682 16.8021 9.47097 17.7469 9.9227 18.4498C8.56642 18.145 7.33161 17.4482 6.35806 16.4297ZM12.8257 18.5005C13.2847 17.7695 13.8162 16.7769 14.233 15.5791C15.1635 15.7983 15.9699 16.1077 16.6416 16.4305C15.608 17.5107 14.2801 18.2281 12.8257 18.5005ZM17.3406 15.5726C16.578 15.1874 15.6396 14.8086 14.5417 14.5441C14.7416 13.774 14.8792 12.9406 14.9216 12.0544H18.6023C18.5057 13.3265 18.0733 14.5265 17.3406 15.5726Z" fill="#555555"/>
</svg>
